<svg width="146" height="64" viewBox="0 0 146 64" fill="none" xmlns="http://www.w3.org/2000/svg">
<g clip-path="url(#clip0_303_220)">
<path d="M133.482 8.00004H11.5559C11.1115 8.00004 10.6724 8.00004 10.2291 8.0025C9.85806 8.00497 9.48996 8.01214 9.11535 8.01817C8.30152 8.02791 7.4896 8.10077 6.68665 8.23611C5.88483 8.3744 5.10813 8.6351 4.38281 9.00941C3.65838 9.38689 2.99645 9.87738 2.42103 10.4631C1.84259 11.0472 1.36041 11.7223 0.993041 12.4624C0.624658 13.2011 0.36922 13.9927 0.23555 14.8099C0.100608 15.626 0.0279949 16.4515 0.0183616 17.279C0.00711436 17.6571 0.00592661 18.0365 0 18.4147V46.9223C0.00592661 47.3053 0.00711436 47.6762 0.0183616 48.0593C0.0279979 48.8868 0.100611 49.7123 0.23555 50.5283C0.368851 51.3459 0.624304 52.138 0.993041 52.877C1.36024 53.6148 1.84249 54.2871 2.42103 54.8679C2.99427 55.4563 3.65663 55.9471 4.38281 56.3217C5.10812 56.697 5.88474 56.9592 6.68665 57.0997C7.48974 57.2339 8.30157 57.3068 9.11535 57.3177C9.48996 57.3261 9.85806 57.3309 10.2291 57.3309C10.6724 57.3334 11.1115 57.3334 11.5559 57.3334H133.482C133.917 57.3334 134.36 57.3334 134.796 57.3309C135.165 57.3309 135.544 57.3261 135.913 57.3177C136.725 57.3074 137.536 57.2345 138.337 57.0997C139.141 56.9583 139.921 56.6961 140.65 56.3217C141.375 55.9469 142.037 55.4561 142.61 54.8679C143.187 54.2848 143.67 53.613 144.042 52.877C144.408 52.1374 144.661 51.3455 144.792 50.5283C144.927 49.7122 145.002 48.8869 145.017 48.0593C145.022 47.6762 145.022 47.3053 145.022 46.9223C145.031 46.4742 145.031 46.0286 145.031 45.5733V19.7613C145.031 19.3096 145.031 18.8616 145.022 18.4147C145.022 18.0365 145.022 17.6571 145.017 17.2789C145.002 16.4514 144.927 15.626 144.792 14.8098C144.66 13.9932 144.407 13.2016 144.042 12.4624C143.294 10.9788 142.107 9.77114 140.65 9.0093C139.921 8.6359 139.141 8.37527 138.337 8.236C137.536 8.10007 136.725 8.02718 135.913 8.018C135.544 8.01198 135.165 8.00475 134.796 8.00234C134.36 7.99988 133.917 7.99988 133.482 7.99988V8.00004Z" fill="#A6A6A6"/>
<path d="M10.2351 56.2542C9.86578 56.2542 9.50543 56.2494 9.13906 56.241C8.38009 56.231 7.6229 56.1637 6.87369 56.0399C6.17509 55.9174 5.49833 55.6897 4.86574 55.3641C4.23895 55.0413 3.66727 54.6179 3.1726 54.1103C2.67076 53.6087 2.25296 53.0269 1.93575 52.388C1.61505 51.7449 1.3931 51.0556 1.27764 50.3441C1.15296 49.5796 1.0855 48.8065 1.07585 48.0316C1.06816 47.7715 1.05811 46.9054 1.05811 46.9054V18.4147C1.05811 18.4147 1.06882 17.562 1.07591 17.3115C1.08515 16.5378 1.15222 15.7659 1.27653 15.0026C1.3922 14.2891 1.61432 13.5978 1.9352 12.9527C2.25124 12.3142 2.66672 11.732 3.16553 11.2285C3.66378 10.7203 4.23729 10.2948 4.86515 9.96748C5.49629 9.64297 6.17176 9.41683 6.86895 9.29662C7.62062 9.17152 8.38045 9.10389 9.14204 9.09428L10.2356 9.07922H134.79L135.896 9.09489C136.651 9.10401 137.404 9.17105 138.149 9.29541C138.853 9.41713 139.536 9.64485 140.174 9.9711C141.432 10.6307 142.455 11.6744 143.101 12.9557C143.417 13.5964 143.635 14.282 143.749 14.9893C143.875 15.7589 143.946 16.5369 143.96 17.3169C143.964 17.6662 143.964 18.0414 143.964 18.4147C143.973 18.8772 143.973 19.3175 143.973 19.7613V45.5733C143.973 46.0214 143.973 46.4586 143.964 46.8994C143.964 47.3005 143.964 47.6679 143.959 48.046C143.945 48.8121 143.876 49.5762 143.752 50.332C143.639 51.0486 143.418 51.7433 143.097 52.3917C142.778 53.0237 142.362 53.6004 141.866 54.1007C141.371 54.611 140.799 55.0369 140.17 55.3618C139.534 55.6898 138.852 55.9184 138.149 56.0399C137.4 56.1644 136.642 56.2316 135.883 56.241C135.528 56.2494 135.157 56.2542 134.796 56.2542L133.482 56.2567L10.2351 56.2542Z" fill="black"/>
<path d="M30.0195 33.0375C30.0326 32.0081 30.3013 30.9988 30.8006 30.1034C31.3 29.2081 32.0138 28.4558 32.8757 27.9167C32.3282 27.121 31.6059 26.4661 30.7662 26.0042C29.9265 25.5422 28.9925 25.2859 28.0384 25.2555C26.0032 25.0381 24.0302 26.4948 22.993 26.4948C21.9359 26.4948 20.3391 25.2771 18.6196 25.3131C17.5074 25.3497 16.4234 25.6788 15.4734 26.2684C14.5233 26.858 13.7396 27.688 13.1985 28.6775C10.8545 32.8072 12.6029 38.8765 14.8482 42.2146C15.9716 43.8492 17.2845 45.6751 19.0025 45.6104C20.6836 45.5394 21.3114 44.5195 23.3407 44.5195C25.351 44.5195 25.9401 45.6104 27.6929 45.5692C29.4968 45.5394 30.6333 43.9273 31.7173 42.2773C32.5245 41.1126 33.1456 39.8253 33.5576 38.4632C32.5096 38.0121 31.6153 37.2571 30.9861 36.2923C30.3569 35.3274 30.0208 34.1955 30.0195 33.0375V33.0375Z" fill="white"/>
<path d="M26.7088 23.0601C27.6924 21.8586 28.177 20.3142 28.0596 18.755C26.557 18.9156 25.1689 19.6464 24.1721 20.8019C23.6847 21.3663 23.3114 22.023 23.0735 22.7343C22.8357 23.4457 22.738 24.1978 22.7859 24.9476C23.5375 24.9554 24.2811 24.7897 24.9606 24.4627C25.6401 24.1358 26.2379 23.6562 26.7088 23.0601Z" fill="white"/>
<path d="M51.2697 41.4722H45.5329L44.1552 45.6118H41.7253L47.1592 30.2963H49.6837L55.1176 45.6118H52.6462L51.2697 41.4722ZM46.1271 39.562H50.6744L48.4327 32.8437H48.37L46.1271 39.562Z" fill="white"/>
<path d="M66.8528 40.0293C66.8528 43.4992 65.0277 45.7286 62.2735 45.7286C61.5758 45.7658 60.882 45.6022 60.2714 45.2567C59.6608 44.9112 59.1581 44.3977 58.821 43.775H58.7689V49.3058H56.5165V34.4456H58.6967V36.3028H58.7382C59.0908 35.6831 59.6019 35.1722 60.2172 34.8246C60.8324 34.477 61.5287 34.3056 62.2321 34.3287C65.017 34.3287 66.8528 36.569 66.8528 40.0293ZM64.5377 40.0293C64.5377 37.7686 63.3896 36.2823 61.6379 36.2823C59.917 36.2823 58.7595 37.7999 58.7595 40.0293C58.7595 42.2792 59.917 43.7859 61.6379 43.7859C63.3896 43.7859 64.5377 42.3105 64.5377 40.0293Z" fill="white"/>
<path d="M78.93 40.0293C78.93 43.4992 77.1049 45.7286 74.3507 45.7286C73.653 45.7658 72.9592 45.6022 72.3486 45.2567C71.738 44.9112 71.2354 44.3977 70.8982 43.775H70.8461V49.3058H68.5938V34.4455H70.7739V36.3028H70.8153C71.168 35.6831 71.6791 35.1722 72.2943 34.8246C72.9096 34.477 73.6059 34.3056 74.3093 34.3287C77.0943 34.3287 78.93 36.5689 78.93 40.0293ZM76.6149 40.0293C76.6149 37.7686 75.4668 36.2823 73.7151 36.2823C71.9942 36.2823 70.8367 37.7999 70.8367 40.0293C70.8367 42.2791 71.9942 43.7859 73.7151 43.7859C75.4668 43.7859 76.6149 42.3105 76.6149 40.0293H76.6149Z" fill="white"/>
<path d="M86.9121 41.3445C87.079 42.8633 88.5289 43.8605 90.5102 43.8605C92.4086 43.8605 93.7745 42.8632 93.7745 41.4938C93.7745 40.305 92.9507 39.5932 91.0002 39.1054L89.0497 38.6273C86.286 37.948 85.003 36.6327 85.003 34.4985C85.003 31.856 87.266 30.0409 90.4794 30.0409C93.6597 30.0409 95.8398 31.856 95.9132 34.4985H93.6395C93.5034 32.9701 92.2619 32.0475 90.4474 32.0475C88.633 32.0475 87.3914 32.9809 87.3914 34.3395C87.3914 35.4223 88.1844 36.0594 90.1243 36.5472L91.7825 36.9615C94.8705 37.7046 96.1535 38.9669 96.1535 41.2071C96.1535 44.0724 93.9106 45.867 90.3433 45.867C87.0056 45.867 84.752 44.1146 84.6064 41.3444L86.9121 41.3445Z" fill="white"/>
<path d="M101.014 31.803V34.4455H103.101V36.2606H101.014V42.4164C101.014 43.3727 101.432 43.8183 102.349 43.8183C102.597 43.8139 102.845 43.7962 103.09 43.7653V45.5695C102.678 45.648 102.259 45.6835 101.839 45.6755C99.6178 45.6755 98.7514 44.8264 98.7514 42.6608V36.2606H97.1559V34.4455H98.7514V31.803H101.014Z" fill="white"/>
<path d="M104.31 40.0293C104.31 36.5159 106.343 34.3082 109.514 34.3082C112.695 34.3082 114.719 36.5159 114.719 40.0293C114.719 43.5522 112.706 45.7503 109.514 45.7503C106.323 45.7503 104.31 43.5522 104.31 40.0293ZM112.424 40.0293C112.424 37.6192 111.339 36.1968 109.514 36.1968C107.689 36.1968 106.605 37.63 106.605 40.0293C106.605 42.4489 107.689 43.8605 109.514 43.8605C111.339 43.8605 112.424 42.4489 112.424 40.0293H112.424Z" fill="white"/>
<path d="M116.576 34.4456H118.724V36.3461H118.776C118.922 35.7525 119.264 35.228 119.744 34.8606C120.225 34.4932 120.815 34.3054 121.416 34.3287C121.675 34.3278 121.934 34.3565 122.188 34.4142V36.5581C121.86 36.4562 121.518 36.4094 121.176 36.4196C120.848 36.4061 120.522 36.4648 120.219 36.5917C119.917 36.7186 119.644 36.9107 119.421 37.1547C119.198 37.3988 119.03 37.6891 118.928 38.0056C118.825 38.3222 118.791 38.6575 118.829 38.9887V45.6118H116.576L116.576 34.4456Z" fill="white"/>
<path d="M132.572 42.3321C132.269 44.3592 130.329 45.7503 127.847 45.7503C124.655 45.7503 122.674 43.5739 122.674 40.0822C122.674 36.5798 124.666 34.3082 127.753 34.3082C130.789 34.3082 132.698 36.4304 132.698 39.8161V40.6014H124.948V40.7399C124.912 41.1508 124.962 41.5648 125.096 41.9543C125.229 42.3439 125.443 42.7 125.722 42.9992C126.001 43.2983 126.34 43.5336 126.715 43.6894C127.091 43.8451 127.494 43.9179 127.899 43.9027C128.432 43.9534 128.966 43.828 129.422 43.545C129.879 43.262 130.234 42.8366 130.434 42.3321L132.572 42.3321ZM124.958 38.9995H130.444C130.464 38.63 130.409 38.2602 130.282 37.9134C130.156 37.5666 129.96 37.2502 129.707 36.984C129.454 36.7179 129.15 36.5079 128.814 36.367C128.478 36.2261 128.116 36.1575 127.753 36.1655C127.386 36.1632 127.022 36.2349 126.683 36.3765C126.344 36.518 126.035 36.7265 125.775 36.99C125.515 37.2534 125.309 37.5667 125.169 37.9116C125.029 38.2565 124.957 38.6262 124.958 38.9995V38.9995Z" fill="white"/>
<path d="M48.07 26.1272V22.8987H44.3559V26.1272H43.2327V18.7682H44.3559V21.8587H48.07V18.7682H49.1873V26.1272L48.07 26.1272Z" fill="white"/>
<path d="M55.6437 24.6277C55.4974 25.1353 55.1803 25.5743 54.748 25.868C54.3157 26.1617 53.7957 26.2914 53.2789 26.2344C52.9194 26.2441 52.5621 26.174 52.2318 26.029C51.9015 25.8841 51.6062 25.6677 51.3663 25.395C51.1265 25.1223 50.9478 24.7997 50.8427 24.4496C50.7377 24.0996 50.7087 23.7304 50.7579 23.3679C50.71 23.0042 50.7395 22.6343 50.8443 22.2832C50.9491 21.9321 51.1269 21.608 51.3655 21.3329C51.6041 21.0577 51.898 20.838 52.2273 20.6885C52.5566 20.539 52.9136 20.4633 53.2742 20.4664C54.7927 20.4664 55.7088 21.5221 55.7088 23.2661V23.6485H51.8551V23.7099C51.8382 23.9137 51.8634 24.1189 51.929 24.3122C51.9946 24.5055 52.0991 24.6828 52.236 24.8326C52.3728 24.9824 52.5389 25.1014 52.7236 25.1821C52.9083 25.2627 53.1075 25.3032 53.3085 25.3009C53.5661 25.3324 53.8271 25.2852 54.0583 25.1653C54.2895 25.0454 54.4805 24.8583 54.6069 24.6277L55.6437 24.6277ZM51.855 22.8379H54.6116C54.6252 22.6515 54.6003 22.4643 54.5385 22.2883C54.4767 22.1123 54.3795 21.9513 54.253 21.8159C54.1265 21.6804 53.9735 21.5733 53.8039 21.5016C53.6343 21.4298 53.4518 21.3949 53.2682 21.3992C53.0819 21.3969 52.8971 21.4324 52.7245 21.5039C52.552 21.5754 52.3952 21.6813 52.2635 21.8154C52.1318 21.9494 52.0278 22.109 51.9577 22.2846C51.8875 22.4602 51.8526 22.6484 51.8551 22.8379H51.855Z" fill="white"/>
<path d="M57.1551 20.5736H58.1919V21.4558H58.2724C58.4089 21.139 58.6392 20.8734 58.9312 20.696C59.2231 20.5186 59.5621 20.4384 59.901 20.4664C60.1666 20.4461 60.4332 20.4868 60.6812 20.5856C60.9291 20.6844 61.1521 20.8387 61.3335 21.0371C61.5149 21.2354 61.6501 21.4728 61.7292 21.7316C61.8082 21.9904 61.829 22.2639 61.79 22.532V26.1272H60.7129V22.8072C60.7129 21.9147 60.3318 21.4709 59.5353 21.4709C59.355 21.4624 59.175 21.4936 59.0077 21.5624C58.8404 21.6313 58.6896 21.7362 58.5659 21.8698C58.4421 22.0035 58.3482 22.1628 58.2906 22.3369C58.233 22.511 58.2131 22.6956 58.2321 22.8783V26.1272H57.1551V20.5736Z" fill="white"/>
<path d="M64.9147 19.1909V20.5989H66.0971V21.5221H64.9147V24.3778C64.9147 24.9595 65.1502 25.2143 65.6863 25.2143C65.8236 25.2138 65.9607 25.2054 66.0971 25.189V26.1019C65.9036 26.1372 65.7077 26.1559 65.5112 26.1579C64.3134 26.1579 63.8364 25.7291 63.8364 24.6584V21.522H62.97V20.5988H63.8364V19.1909H64.9147Z" fill="white"/>
<path d="M70.3378 18.9313C70.3295 18.7894 70.3633 18.6482 70.4348 18.526C70.5063 18.4038 70.6122 18.3062 70.7387 18.246C70.8653 18.1857 71.0068 18.1655 71.1448 18.188C71.2827 18.2105 71.4109 18.2747 71.5127 18.3721C71.6144 18.4696 71.6851 18.5959 71.7154 18.7347C71.7458 18.8735 71.7346 19.0184 71.6831 19.1506C71.6316 19.2829 71.5423 19.3963 71.4268 19.4763C71.3112 19.5562 71.1747 19.5991 71.035 19.5992C70.9457 19.6038 70.8563 19.59 70.7724 19.5586C70.6884 19.5272 70.6116 19.4789 70.5465 19.4165C70.4814 19.3541 70.4293 19.279 70.3935 19.1956C70.3576 19.1122 70.3387 19.0223 70.3378 18.9313V18.9313ZM70.4988 20.5736H71.5711V26.1272H70.4988L70.4988 20.5736Z" fill="white"/>
</g>
<defs>
<clipPath id="clip0_303_220">
<rect width="145.031" height="49.3333" fill="white" transform="translate(0 8)"/>
</clipPath>
</defs>
</svg>
