<svg width="328" height="45" viewBox="0 0 328 45" fill="none" xmlns="http://www.w3.org/2000/svg">
<g clip-path="url(#clip0_164_118)">
<path d="M253.812 25.1242C258.444 25.1242 262.199 21.3691 262.199 16.737C262.199 12.1049 258.444 8.34985 253.812 8.34985C249.18 8.34985 245.425 12.1049 245.425 16.737C245.425 21.3691 249.18 25.1242 253.812 25.1242Z" fill="#C3D884"/>
<path d="M253.812 0C252.574 0 251.531 0.809859 251.168 1.92691C244.112 3.17428 238.759 9.32734 238.759 16.7464C238.759 17.519 238.815 18.2823 238.936 19.0177C239.029 19.6228 239.597 20.0417 240.202 19.9672C240.845 19.8927 241.301 19.297 241.208 18.664C241.115 18.0403 241.059 17.398 241.059 16.7464C241.059 10.5189 245.527 5.3339 251.438 4.21685C251.922 5.0174 252.806 5.55731 253.812 5.55731C255.348 5.55731 256.586 4.30994 256.586 2.78331C256.586 1.25668 255.338 0.00930873 253.812 0.00930873V0Z" fill="#FBFCF2"/>
<path d="M268.302 25.1763C268.916 24.1058 268.73 22.7932 267.948 21.9275C270.368 15.188 267.687 7.48037 261.246 3.79412C260.575 3.41246 259.887 3.08665 259.188 2.8167C258.621 2.59329 257.978 2.88186 257.736 3.44969C257.485 4.04545 257.764 4.7343 258.369 4.96702C258.956 5.19042 259.542 5.46969 260.101 5.79549C265.509 8.88599 267.79 15.3462 265.816 21.0246C264.876 21.0432 263.973 21.5459 263.47 22.4209C262.707 23.752 263.173 25.4462 264.504 26.2095C265.835 26.9728 267.529 26.5074 268.292 25.1763H268.302Z" fill="#FBFCF2"/>
<path d="M239.383 25.096C240.007 26.1572 241.236 26.6506 242.381 26.3992C247.035 31.8448 255.05 33.3435 261.445 29.5921C262.115 29.2012 262.739 28.7636 263.316 28.2889C263.791 27.8979 263.865 27.1998 263.493 26.7157C263.102 26.2038 262.357 26.1014 261.854 26.5109C261.361 26.9112 260.84 27.2743 260.281 27.6094C254.91 30.765 248.18 29.5363 244.224 25.0122C244.671 24.1838 244.689 23.1505 244.177 22.2848C243.395 20.9629 241.701 20.5161 240.37 21.2981C239.039 22.08 238.601 23.7742 239.383 25.1053V25.096Z" fill="#FBFCF2"/>
<path d="M250.07 33.2319L249.102 33.1575V34.8237L250.61 36.1828C251.661 37.1323 252.257 38.4728 252.257 39.8877V41.8891C252.257 42.1683 252.35 42.429 252.509 42.6524L253.812 44.3838L255.115 42.6524C255.283 42.429 255.366 42.1683 255.366 41.8891V39.8877C255.366 38.4728 255.962 37.123 257.014 36.1828L258.522 34.8237V33.1575L257.554 33.2319C255.059 33.4181 252.555 33.4181 250.06 33.2319H250.07Z" fill="#FBFCF2"/>
</g>
<path d="M10.9564 19.0546H15.4711V25.6172C14.7171 25.9896 13.3394 26.2037 11.6918 26.2037C6.41371 26.2037 3.12773 22.7781 3.12773 17.2487C3.12773 11.7193 6.54403 8.34024 12.0362 8.34024C13.9631 8.34024 15.5176 8.63812 16.9419 9.28973L16.9977 9.31766L17.7331 6.91601V6.87877L17.7052 6.86016C16.7092 6.38541 14.6426 5.8362 12.1013 5.8362C4.87777 5.82689 0.00930872 10.4813 0 17.3976C0 20.7767 1.13566 23.802 3.11842 25.7196C5.18496 27.7117 7.92173 28.6798 11.4963 28.6798C14.7636 28.6798 17.398 27.8234 18.3754 27.4511H18.4127V16.6436H10.9564V19.0546Z" fill="#FBFCF2"/>
<path d="M47.7909 5.68726C41.6751 5.68726 37.4117 10.5278 37.4117 17.4535C37.4117 20.7674 38.3798 23.6159 40.2229 25.6824C42.0567 27.7396 44.5701 28.8287 47.493 28.8287C50.416 28.8287 52.9945 27.7582 54.8376 25.8127C56.839 23.6996 57.8909 20.665 57.8909 17.0346C57.8909 10.2485 53.8323 5.68726 47.7909 5.68726ZM47.642 26.3806C42.9876 26.3806 40.558 21.8565 40.558 17.3883C40.558 12.9201 42.7642 8.13545 47.6792 8.13545C52.5942 8.13545 54.7445 12.8177 54.7445 17.1649C54.7445 21.7541 52.5477 26.3899 47.6513 26.3899L47.642 26.3806Z" fill="#FBFCF2"/>
<path d="M80.7346 6.05029H77.7372V28.4657H90.276V25.9244H80.7346V6.05029Z" fill="#FBFCF2"/>
<path d="M109.247 28.4657H112.245V18.3657H120.678V15.8803H112.245V8.55434H121.367V6.05029H109.247V28.4657Z" fill="#FBFCF2"/>
<path d="M148.483 6.05029H144.946L137.322 28.4657H140.422L142.731 21.4562H150.569L152.961 28.4657H156.154L148.511 6.08753V6.05029H148.483ZM146.603 8.71259L146.65 8.89876C146.966 10.1182 147.283 11.3749 147.739 12.7433L149.926 19.1011H143.326L145.505 12.706C145.942 11.3563 146.287 9.98788 146.603 8.71259Z" fill="#FBFCF2"/>
<path d="M185.16 8.2101C186.798 8.2101 188.39 8.53591 189.628 9.12236L189.684 9.15028L190.419 6.7114L190.382 6.69278C189.935 6.46006 188.25 5.70605 185.067 5.70605C178.067 5.70605 173.366 10.4349 173.366 17.463C173.366 20.9724 174.455 23.886 176.521 25.8967C178.485 27.805 181.213 28.8103 184.415 28.8103C187.217 28.8103 189.358 28.2332 190.335 27.7398L190.373 27.7212L189.768 25.3195L189.712 25.3475C188.539 25.906 186.733 26.2597 185.011 26.2597C179.686 26.2597 176.512 22.9365 176.512 17.3606C176.512 11.7847 179.826 8.20079 185.16 8.20079V8.2101Z" fill="#FBFCF2"/>
<path d="M223.009 22.2755C222.441 19.8367 221.334 18.31 219.742 17.7329C222.376 16.802 223.949 14.661 223.949 11.9987C223.949 10.2766 223.307 8.71273 222.181 7.71669C220.784 6.45071 218.718 5.86426 215.683 5.86426C213.738 5.86426 211.606 6.05043 210.135 6.34831H210.098V28.4658H213.077V18.7941H215.748C218.318 18.8779 219.518 20.0414 220.179 23.0854C220.831 26.0642 221.315 27.8235 221.65 28.4379L221.669 28.4658H224.768L224.731 28.3914C224.266 27.507 223.707 25.1985 223.018 22.2755H223.009ZM220.943 12.3245C220.943 14.8658 218.988 16.5134 215.953 16.5134H213.058V8.45208C213.337 8.38692 214.212 8.21006 215.86 8.21006C219.137 8.21006 220.943 9.67153 220.943 12.3245Z" fill="#FBFCF2"/>
<path d="M289.604 15.7034C286.746 14.5957 285.201 13.5996 285.201 11.4679C285.201 9.82961 286.495 8.18196 289.371 8.18196C291.614 8.18196 293.141 8.99182 293.56 9.23385L293.616 9.26177L294.453 6.80427L294.416 6.78565C293.839 6.45985 292.21 5.69653 289.473 5.69653C285.182 5.69653 282.194 8.20989 282.194 11.7937C282.194 14.7074 284.084 16.7367 288.124 18.1702C291.14 19.2966 292.312 20.5253 292.312 22.536C292.312 24.8446 290.535 26.2874 287.686 26.2874C285.917 26.2874 284 25.7475 282.566 24.8539L282.51 24.8167L281.728 27.2835V27.3207L281.747 27.3393C283.004 28.1864 285.415 28.8008 287.472 28.8008C293.271 28.8008 295.329 25.31 295.329 22.3126C295.329 19.3152 293.672 17.2859 289.604 15.6941V15.7034Z" fill="#FBFCF2"/>
<path d="M321.812 15.7034C318.954 14.5957 317.409 13.5996 317.409 11.4679C317.409 9.82961 318.703 8.18196 321.579 8.18196C323.823 8.18196 325.349 8.99182 325.768 9.23385L325.824 9.26177L326.662 6.80427L326.625 6.78565C326.047 6.45985 324.418 5.69653 321.682 5.69653C317.39 5.69653 314.402 8.20989 314.402 11.7937C314.402 14.7074 316.292 16.7367 320.332 18.1702C323.348 19.2966 324.521 20.5253 324.521 22.536C324.521 24.8446 322.743 26.2874 319.894 26.2874C318.126 26.2874 316.208 25.7475 314.774 24.8539L314.719 24.8167L313.937 27.2835V27.3207L313.955 27.3393C315.212 28.1864 317.623 28.8008 319.68 28.8008C325.48 28.8008 327.537 25.31 327.537 22.3126C327.537 19.3152 325.88 17.2859 321.812 15.6941V15.7034Z" fill="#FBFCF2"/>
<defs>
<clipPath id="clip0_164_118">
<rect width="327.537" height="44.3933" fill="white"/>
</clipPath>
</defs>
</svg>
